# xmcd
#
# Track frame offsets: 
#        150
#        13531
#        27622
#        49259
#        64938
#        83689
#        98306
#        111117
#        132756
#        150145
#        166977
#        186900
#
# Disc length: 2653 seconds
#
# Revision: 0
# Processed by: cddbd v1.5.2PL0 Copyright (c) Steve Scherf et al.
# Submitted via: ExactAudioCopy v1.3
#
DISCID=8a0a5b0c
DTITLE=Mulebone  - Bluesville Sessions
DYEAR=2019
DGENRE=Blues
TTITLE0=In My Time of Dying
TTITLE1=Come on in My Kitchen
TTITLE2=Drop Down Mama
TTITLE3=Money and Keys
TTITLE4=New Morning
TTITLE5=I Just Called You Up Brother
TTITLE6=Hit My Mark
TTITLE7=The Doors Are All Open
TTITLE8=Spiders Web
TTITLE9=Come Back Baby
TTITLE10=Tupelo Honey
TTITLE11=Untitled
EXTD=
EXTT0=
EXTT1=
EXTT2=
EXTT3=
EXTT4=
EXTT5=
EXTT6=
EXTT7=
EXTT8=
EXTT9=
EXTT10=
EXTT11=
PLAYORDER=
